<svg xmlns="http://www.w3.org/2000/svg" xmlns:xlink="http://www.w3.org/1999/xlink" width="500" zoomAndPan="magnify" viewBox="0 0 375 374.999991" height="500" preserveAspectRatio="xMidYMid meet" version="1.0"><defs><clipPath id="c5714f3707"><path d="M 56 59.835938 L 319 59.835938 L 319 314.835938 L 56 314.835938 Z M 56 59.835938 " clip-rule="nonzero"/></clipPath></defs><g clip-path="url(#c5714f3707)"><path fill="#ff26b9" d="M 291.273438 236.804688 C 284.394531 236.804688 278.277344 239.480469 273.308594 243.304688 L 223.238281 207.757812 C 224.003906 205.082031 224.382812 202.40625 224.382812 199.730469 C 224.382812 193.230469 222.089844 187.117188 218.269531 182.53125 L 261.078125 133.222656 C 264.898438 135.515625 269.871094 137.042969 274.839844 137.042969 C 289.746094 137.042969 301.976562 124.8125 301.976562 109.90625 C 301.976562 95 289.746094 82.769531 274.839844 82.769531 C 259.929688 82.769531 247.699219 95 247.699219 109.90625 C 247.699219 115.257812 249.230469 120.609375 252.285156 124.8125 L 208.710938 175.265625 C 205.273438 173.738281 201.832031 172.972656 197.628906 172.972656 C 195.71875 172.972656 193.804688 173.355469 191.894531 173.738281 L 167.433594 109.90625 C 175.078125 104.9375 180.046875 96.527344 180.046875 86.972656 C 180.046875 72.066406 167.816406 59.835938 152.90625 59.835938 C 138 59.835938 125.769531 72.066406 125.769531 86.972656 C 125.769531 101.878906 138 114.109375 152.90625 114.109375 C 154.054688 114.109375 154.820312 114.109375 155.964844 114.109375 L 180.808594 179.089844 C 174.695312 184.058594 170.488281 191.703125 170.488281 200.496094 C 170.488281 204.316406 171.253906 207.757812 172.785156 211.195312 L 101.308594 267.765625 C 96.339844 263.5625 90.222656 260.886719 83.34375 260.886719 C 68.433594 260.886719 56.203125 273.117188 56.203125 288.023438 C 56.203125 302.929688 68.433594 315.164062 83.34375 315.164062 C 98.25 315.164062 110.480469 302.929688 110.480469 288.023438 C 110.480469 284.585938 109.714844 281.144531 108.570312 278.085938 L 180.046875 221.132812 C 184.632812 225.339844 190.75 227.632812 197.628906 227.632812 C 205.273438 227.632812 212.535156 224.191406 217.503906 219.222656 L 266.429688 254.007812 C 264.898438 257.0625 264.519531 260.886719 264.519531 264.324219 C 264.519531 279.234375 276.75 291.464844 291.65625 291.464844 C 306.5625 291.464844 318.792969 279.234375 318.792969 264.324219 C 318.792969 249.417969 306.179688 236.804688 291.273438 236.804688 Z M 291.273438 236.804688 " fill-opacity="1" fill-rule="nonzero"/></g></svg>